<svg width="24" height="24" viewBox="0 0 24 24" fill="none" xmlns="http://www.w3.org/2000/svg">
<rect width="24" height="24" rx="8" fill="#F4F7FC" fill-opacity="0.15"/>
<path d="M15.8537 8.14629C15.6586 7.95124 15.3458 7.95124 15.1507 8.14629L12 11.2966L8.84932 8.14629C8.65424 7.95124 8.34138 7.95124 8.14631 8.14629C7.95123 8.34135 7.95123 8.65417 8.14631 8.84922L11.297 11.9995L8.14631 15.1499C7.95123 15.3449 7.95123 15.6577 8.14631 15.8528C8.24201 15.9485 8.37083 16 8.49597 16C8.62112 16 8.74994 15.9522 8.84564 15.8528L11.9963 12.7025L15.147 15.8528C15.2427 15.9485 15.3715 16 15.4967 16C15.6255 16 15.7506 15.9522 15.8463 15.8528C16.0414 15.6577 16.0414 15.3449 15.8463 15.1499L12.703 11.9995L15.8537 8.84922C16.0488 8.65417 16.0488 8.34135 15.8537 8.14629Z" fill="#F4F7FC"/>
</svg>
