<svg width="24" height="24" viewBox="0 0 24 24" fill="none" xmlns="http://www.w3.org/2000/svg">
<rect width="24" height="24" rx="8" fill="#282A31" fill-opacity="0.6"/>
<path fill-rule="evenodd" clip-rule="evenodd" d="M11.0609 8.37606C11.0609 7.85779 11.4815 7.43716 11.9998 7.43716C12.5181 7.43716 12.9387 7.85779 12.9387 8.37606C12.9387 8.89433 12.5181 9.31496 11.9998 9.31496C11.4815 9.31496 11.0609 8.89433 11.0609 8.37606ZM10.939 11.8157C11.0808 11.8458 11.1717 11.9847 11.1424 12.1266L10.5859 14.8234C10.4007 15.7527 11.0581 16.5627 11.9998 16.5627H12.9387C13.3115 16.5627 13.6142 16.26 13.6142 15.8872C13.6142 15.5144 13.3115 15.2117 12.9387 15.2117H12.2054C12.1267 15.2117 12.052 15.1765 12.002 15.1156C11.952 15.0548 11.9318 14.9748 11.947 14.8975L12.6512 11.3184C12.7353 10.8986 12.4243 10.5172 11.9998 10.5172H11.0618C10.689 10.5172 10.3854 10.8199 10.3854 11.1927C10.3854 11.4977 10.6112 11.7463 10.939 11.8157Z" fill="#F4F7FC"/>
</svg>
