<svg width="196" height="182" viewBox="0 0 196 182" fill="none" xmlns="http://www.w3.org/2000/svg">
<path d="M2.46 4.644V7.572H6.672V8.604H2.46V12H1.26V3.6H7.188V4.644H2.46ZM10.7972 3.6H11.9972V12H10.7972V3.6ZM22.048 12L20.236 9.42C20.012 9.436 19.836 9.444 19.708 9.444H17.632V12H16.432V3.6H19.708C20.796 3.6 21.652 3.86 22.276 4.38C22.9 4.9 23.212 5.616 23.212 6.528C23.212 7.176 23.052 7.728 22.732 8.184C22.412 8.64 21.956 8.972 21.364 9.18L23.356 12H22.048ZM19.672 8.424C20.432 8.424 21.012 8.26 21.412 7.932C21.812 7.604 22.012 7.136 22.012 6.528C22.012 5.92 21.812 5.456 21.412 5.136C21.012 4.808 20.432 4.644 19.672 4.644H17.632V8.424H19.672ZM29.5188 12.096C28.8868 12.096 28.2748 12 27.6828 11.808C27.0988 11.608 26.6388 11.352 26.3028 11.04L26.7468 10.104C27.0668 10.392 27.4748 10.628 27.9708 10.812C28.4748 10.988 28.9908 11.076 29.5188 11.076C30.2148 11.076 30.7348 10.96 31.0788 10.728C31.4228 10.488 31.5948 10.172 31.5948 9.78C31.5948 9.492 31.4988 9.26 31.3068 9.084C31.1228 8.9 30.8908 8.76 30.6108 8.664C30.3388 8.568 29.9508 8.46 29.4468 8.34C28.8148 8.188 28.3028 8.036 27.9108 7.884C27.5268 7.732 27.1948 7.5 26.9148 7.188C26.6428 6.868 26.5068 6.44 26.5068 5.904C26.5068 5.456 26.6228 5.052 26.8548 4.692C27.0948 4.332 27.4548 4.044 27.9348 3.828C28.4148 3.612 29.0108 3.504 29.7228 3.504C30.2188 3.504 30.7068 3.568 31.1868 3.696C31.6668 3.824 32.0788 4.008 32.4228 4.248L32.0268 5.208C31.6748 4.984 31.2988 4.816 30.8988 4.704C30.4988 4.584 30.1068 4.524 29.7228 4.524C29.0428 4.524 28.5308 4.648 28.1868 4.896C27.8508 5.144 27.6828 5.464 27.6828 5.856C27.6828 6.144 27.7788 6.38 27.9708 6.564C28.1628 6.74 28.3988 6.88 28.6788 6.984C28.9668 7.08 29.3548 7.184 29.8428 7.296C30.4748 7.448 30.9828 7.6 31.3668 7.752C31.7508 7.904 32.0788 8.136 32.3508 8.448C32.6308 8.76 32.7708 9.18 32.7708 9.708C32.7708 10.148 32.6508 10.552 32.4108 10.92C32.1708 11.28 31.8068 11.568 31.3188 11.784C30.8308 11.992 30.2308 12.096 29.5188 12.096ZM37.9947 4.644H35.1147V3.6H42.0627V4.644H39.1827V12H37.9947V4.644ZM50.4323 3.6H53.9723C54.8603 3.6 55.6483 3.776 56.3363 4.128C57.0243 4.48 57.5563 4.976 57.9323 5.616C58.3163 6.248 58.5083 6.976 58.5083 7.8C58.5083 8.624 58.3163 9.356 57.9323 9.996C57.5563 10.628 57.0243 11.12 56.3363 11.472C55.6483 11.824 54.8603 12 53.9723 12H50.4323V3.6ZM53.9003 10.956C54.5803 10.956 55.1763 10.824 55.6883 10.56C56.2083 10.296 56.6083 9.928 56.8883 9.456C57.1683 8.976 57.3083 8.424 57.3083 7.8C57.3083 7.176 57.1683 6.628 56.8883 6.156C56.6083 5.676 56.2083 5.304 55.6883 5.04C55.1763 4.776 54.5803 4.644 53.9003 4.644H51.6323V10.956H53.9003ZM68.3624 10.956V12H62.2664V3.6H68.1944V4.644H63.4664V7.224H67.6784V8.244H63.4664V10.956H68.3624ZM75.5015 3.6C76.5895 3.6 77.4455 3.86 78.0695 4.38C78.6935 4.9 79.0055 5.616 79.0055 6.528C79.0055 7.44 78.6935 8.156 78.0695 8.676C77.4455 9.196 76.5895 9.456 75.5015 9.456H73.4255V12H72.2255V3.6H75.5015ZM75.4655 8.412C76.2255 8.412 76.8055 8.252 77.2055 7.932C77.6055 7.604 77.8055 7.136 77.8055 6.528C77.8055 5.92 77.6055 5.456 77.2055 5.136C76.8055 4.808 76.2255 4.644 75.4655 4.644H73.4255V8.412H75.4655ZM86.5976 12.096C85.7496 12.096 84.9856 11.912 84.3056 11.544C83.6256 11.168 83.0896 10.652 82.6976 9.996C82.3136 9.34 82.1216 8.608 82.1216 7.8C82.1216 6.992 82.3136 6.26 82.6976 5.604C83.0896 4.948 83.6256 4.436 84.3056 4.068C84.9856 3.692 85.7496 3.504 86.5976 3.504C87.4376 3.504 88.1976 3.692 88.8776 4.068C89.5576 4.436 90.0896 4.948 90.4736 5.604C90.8576 6.252 91.0496 6.984 91.0496 7.8C91.0496 8.616 90.8576 9.352 90.4736 10.008C90.0896 10.656 89.5576 11.168 88.8776 11.544C88.1976 11.912 87.4376 12.096 86.5976 12.096ZM86.5976 11.028C87.2136 11.028 87.7656 10.888 88.2536 10.608C88.7496 10.328 89.1376 9.944 89.4176 9.456C89.7056 8.96 89.8496 8.408 89.8496 7.8C89.8496 7.192 89.7056 6.644 89.4176 6.156C89.1376 5.66 88.7496 5.272 88.2536 4.992C87.7656 4.712 87.2136 4.572 86.5976 4.572C85.9816 4.572 85.4216 4.712 84.9176 4.992C84.4216 5.272 84.0296 5.66 83.7416 6.156C83.4616 6.644 83.3216 7.192 83.3216 7.8C83.3216 8.408 83.4616 8.96 83.7416 9.456C84.0296 9.944 84.4216 10.328 84.9176 10.608C85.4216 10.888 85.9816 11.028 86.5976 11.028ZM97.2517 12.096C96.6197 12.096 96.0077 12 95.4157 11.808C94.8317 11.608 94.3717 11.352 94.0357 11.04L94.4797 10.104C94.7997 10.392 95.2077 10.628 95.7037 10.812C96.2077 10.988 96.7237 11.076 97.2517 11.076C97.9477 11.076 98.4677 10.96 98.8117 10.728C99.1557 10.488 99.3277 10.172 99.3277 9.78C99.3277 9.492 99.2317 9.26 99.0397 9.084C98.8557 8.9 98.6237 8.76 98.3437 8.664C98.0717 8.568 97.6837 8.46 97.1797 8.34C96.5477 8.188 96.0357 8.036 95.6437 7.884C95.2597 7.732 94.9277 7.5 94.6477 7.188C94.3757 6.868 94.2397 6.44 94.2397 5.904C94.2397 5.456 94.3557 5.052 94.5877 4.692C94.8277 4.332 95.1877 4.044 95.6677 3.828C96.1477 3.612 96.7437 3.504 97.4557 3.504C97.9517 3.504 98.4397 3.568 98.9197 3.696C99.3997 3.824 99.8117 4.008 100.156 4.248L99.7597 5.208C99.4077 4.984 99.0317 4.816 98.6317 4.704C98.2317 4.584 97.8397 4.524 97.4557 4.524C96.7757 4.524 96.2637 4.648 95.9197 4.896C95.5837 5.144 95.4157 5.464 95.4157 5.856C95.4157 6.144 95.5117 6.38 95.7037 6.564C95.8957 6.74 96.1317 6.88 96.4117 6.984C96.6997 7.08 97.0877 7.184 97.5757 7.296C98.2077 7.448 98.7157 7.6 99.0997 7.752C99.4837 7.904 99.8117 8.136 100.084 8.448C100.364 8.76 100.504 9.18 100.504 9.708C100.504 10.148 100.384 10.552 100.144 10.92C99.9037 11.28 99.5397 11.568 99.0517 11.784C98.5637 11.992 97.9637 12.096 97.2517 12.096ZM104.177 3.6H105.377V12H104.177V3.6ZM111.48 4.644H108.6V3.6H115.548V4.644H112.668V12H111.48V4.644ZM129.569 7.644C130.057 7.78 130.441 8.028 130.721 8.388C131.001 8.74 131.141 9.188 131.141 9.732C131.141 10.46 130.865 11.02 130.313 11.412C129.769 11.804 128.973 12 127.925 12H123.917V3.6H127.685C128.645 3.6 129.385 3.792 129.905 4.176C130.433 4.56 130.697 5.092 130.697 5.772C130.697 6.212 130.593 6.592 130.385 6.912C130.185 7.232 129.913 7.476 129.569 7.644ZM125.117 4.572V7.26H127.577C128.193 7.26 128.665 7.148 128.993 6.924C129.329 6.692 129.497 6.356 129.497 5.916C129.497 5.476 129.329 5.144 128.993 4.92C128.665 4.688 128.193 4.572 127.577 4.572H125.117ZM127.877 11.028C128.557 11.028 129.069 10.916 129.413 10.692C129.757 10.468 129.929 10.116 129.929 9.636C129.929 8.7 129.245 8.232 127.877 8.232H125.117V11.028H127.877ZM138.711 12.096C137.863 12.096 137.099 11.912 136.419 11.544C135.739 11.168 135.203 10.652 134.811 9.996C134.427 9.34 134.235 8.608 134.235 7.8C134.235 6.992 134.427 6.26 134.811 5.604C135.203 4.948 135.739 4.436 136.419 4.068C137.099 3.692 137.863 3.504 138.711 3.504C139.551 3.504 140.311 3.692 140.991 4.068C141.671 4.436 142.203 4.948 142.587 5.604C142.971 6.252 143.163 6.984 143.163 7.8C143.163 8.616 142.971 9.352 142.587 10.008C142.203 10.656 141.671 11.168 140.991 11.544C140.311 11.912 139.551 12.096 138.711 12.096ZM138.711 11.028C139.327 11.028 139.879 10.888 140.367 10.608C140.863 10.328 141.251 9.944 141.531 9.456C141.819 8.96 141.963 8.408 141.963 7.8C141.963 7.192 141.819 6.644 141.531 6.156C141.251 5.66 140.863 5.272 140.367 4.992C139.879 4.712 139.327 4.572 138.711 4.572C138.095 4.572 137.535 4.712 137.031 4.992C136.535 5.272 136.143 5.66 135.855 6.156C135.575 6.644 135.435 7.192 135.435 7.8C135.435 8.408 135.575 8.96 135.855 9.456C136.143 9.944 136.535 10.328 137.031 10.608C137.535 10.888 138.095 11.028 138.711 11.028ZM154.142 3.6V12H153.158L148.118 5.736V12H146.918V3.6H147.902L152.942 9.864V3.6H154.142ZM162.056 12.096C160.936 12.096 160.064 11.776 159.44 11.136C158.816 10.496 158.504 9.576 158.504 8.376V3.6H159.704V8.328C159.704 10.128 160.492 11.028 162.068 11.028C162.836 11.028 163.424 10.808 163.832 10.368C164.24 9.92 164.444 9.24 164.444 8.328V3.6H165.608V8.376C165.608 9.584 165.296 10.508 164.672 11.148C164.048 11.78 163.176 12.096 162.056 12.096ZM172.436 12.096C171.804 12.096 171.192 12 170.6 11.808C170.016 11.608 169.556 11.352 169.22 11.04L169.664 10.104C169.984 10.392 170.392 10.628 170.888 10.812C171.392 10.988 171.908 11.076 172.436 11.076C173.132 11.076 173.652 10.96 173.996 10.728C174.34 10.488 174.512 10.172 174.512 9.78C174.512 9.492 174.416 9.26 174.224 9.084C174.04 8.9 173.808 8.76 173.528 8.664C173.256 8.568 172.868 8.46 172.364 8.34C171.732 8.188 171.22 8.036 170.828 7.884C170.444 7.732 170.112 7.5 169.832 7.188C169.56 6.868 169.424 6.44 169.424 5.904C169.424 5.456 169.54 5.052 169.772 4.692C170.012 4.332 170.372 4.044 170.852 3.828C171.332 3.612 171.928 3.504 172.64 3.504C173.136 3.504 173.624 3.568 174.104 3.696C174.584 3.824 174.996 4.008 175.34 4.248L174.944 5.208C174.592 4.984 174.216 4.816 173.816 4.704C173.416 4.584 173.024 4.524 172.64 4.524C171.96 4.524 171.448 4.648 171.104 4.896C170.768 5.144 170.6 5.464 170.6 5.856C170.6 6.144 170.696 6.38 170.888 6.564C171.08 6.74 171.316 6.88 171.596 6.984C171.884 7.08 172.272 7.184 172.76 7.296C173.392 7.448 173.9 7.6 174.284 7.752C174.668 7.904 174.996 8.136 175.268 8.448C175.548 8.76 175.688 9.18 175.688 9.708C175.688 10.148 175.568 10.552 175.328 10.92C175.088 11.28 174.724 11.568 174.236 11.784C173.748 11.992 173.148 12.096 172.436 12.096Z" fill="#F4F7FC"/>
<path d="M6.798 28.6V44H3.234V31.46H0.154V28.6H6.798ZM16.2932 44.264C15.0172 44.264 13.8806 43.9487 12.8832 43.318C11.8859 42.6873 11.1012 41.778 10.5292 40.59C9.9719 39.3873 9.69323 37.9573 9.69323 36.3C9.69323 34.6427 9.9719 33.22 10.5292 32.032C11.1012 30.8293 11.8859 29.9127 12.8832 29.282C13.8806 28.6513 15.0172 28.336 16.2932 28.336C17.5692 28.336 18.7059 28.6513 19.7032 29.282C20.7006 29.9127 21.4779 30.8293 22.0352 32.032C22.6072 33.22 22.8932 34.6427 22.8932 36.3C22.8932 37.9573 22.6072 39.3873 22.0352 40.59C21.4779 41.778 20.7006 42.6873 19.7032 43.318C18.7059 43.9487 17.5692 44.264 16.2932 44.264ZM16.2932 41.25C17.2319 41.25 17.9652 40.8467 18.4932 40.04C19.0359 39.2333 19.3072 37.9867 19.3072 36.3C19.3072 34.6133 19.0359 33.3667 18.4932 32.56C17.9652 31.7533 17.2319 31.35 16.2932 31.35C15.3692 31.35 14.6359 31.7533 14.0932 32.56C13.5652 33.3667 13.3012 34.6133 13.3012 36.3C13.3012 37.9867 13.5652 39.2333 14.0932 40.04C14.6359 40.8467 15.3692 41.25 16.2932 41.25ZM31.4449 44.264C30.1689 44.264 29.0322 43.9487 28.0349 43.318C27.0375 42.6873 26.2529 41.778 25.6809 40.59C25.1235 39.3873 24.8449 37.9573 24.8449 36.3C24.8449 34.6427 25.1235 33.22 25.6809 32.032C26.2529 30.8293 27.0375 29.9127 28.0349 29.282C29.0322 28.6513 30.1689 28.336 31.4449 28.336C32.7209 28.336 33.8575 28.6513 34.8549 29.282C35.8522 29.9127 36.6295 30.8293 37.1869 32.032C37.7589 33.22 38.0449 34.6427 38.0449 36.3C38.0449 37.9573 37.7589 39.3873 37.1869 40.59C36.6295 41.778 35.8522 42.6873 34.8549 43.318C33.8575 43.9487 32.7209 44.264 31.4449 44.264ZM31.4449 41.25C32.3835 41.25 33.1169 40.8467 33.6449 40.04C34.1875 39.2333 34.4589 37.9867 34.4589 36.3C34.4589 34.6133 34.1875 33.3667 33.6449 32.56C33.1169 31.7533 32.3835 31.35 31.4449 31.35C30.5209 31.35 29.7875 31.7533 29.2449 32.56C28.7169 33.3667 28.4529 34.6133 28.4529 36.3C28.4529 37.9867 28.7169 39.2333 29.2449 40.04C29.7875 40.8467 30.5209 41.25 31.4449 41.25ZM43.5605 36.916C42.4312 36.916 41.5072 36.5347 40.7885 35.772C40.0845 34.9947 39.7325 33.9607 39.7325 32.67C39.7325 31.3793 40.0845 30.3527 40.7885 29.59C41.5072 28.8127 42.4312 28.424 43.5605 28.424C44.6898 28.424 45.6065 28.8127 46.3105 29.59C47.0145 30.3527 47.3665 31.3793 47.3665 32.67C47.3665 33.9607 47.0145 34.9947 46.3105 35.772C45.6065 36.5347 44.6898 36.916 43.5605 36.916ZM52.7345 28.6H55.3525L44.8365 44H42.2185L52.7345 28.6ZM43.5605 35.112C44.0592 35.112 44.4478 34.9067 44.7265 34.496C45.0198 34.0853 45.1665 33.4767 45.1665 32.67C45.1665 31.8633 45.0198 31.2547 44.7265 30.844C44.4478 30.4333 44.0592 30.228 43.5605 30.228C43.0765 30.228 42.6878 30.4407 42.3945 30.866C42.1012 31.2767 41.9545 31.878 41.9545 32.67C41.9545 33.462 42.1012 34.0707 42.3945 34.496C42.6878 34.9067 43.0765 35.112 43.5605 35.112ZM54.0105 44.176C53.2772 44.176 52.6172 44.0073 52.0305 43.67C51.4585 43.318 51.0112 42.8193 50.6885 42.174C50.3658 41.5287 50.2045 40.7807 50.2045 39.93C50.2045 39.0793 50.3658 38.3313 50.6885 37.686C51.0112 37.0407 51.4585 36.5493 52.0305 36.212C52.6172 35.86 53.2772 35.684 54.0105 35.684C55.1398 35.684 56.0565 36.0727 56.7605 36.85C57.4792 37.6127 57.8385 38.6393 57.8385 39.93C57.8385 41.2207 57.4792 42.2547 56.7605 43.032C56.0565 43.7947 55.1398 44.176 54.0105 44.176ZM54.0105 42.372C54.5092 42.372 54.8978 42.1667 55.1765 41.756C55.4698 41.3307 55.6165 40.722 55.6165 39.93C55.6165 39.138 55.4698 38.5367 55.1765 38.126C54.8978 37.7007 54.5092 37.488 54.0105 37.488C53.5265 37.488 53.1378 37.6933 52.8445 38.104C52.5512 38.5147 52.4045 39.1233 52.4045 39.93C52.4045 40.7367 52.5512 41.3453 52.8445 41.756C53.1378 42.1667 53.5265 42.372 54.0105 42.372ZM73.77 44.264C71.57 44.264 69.854 43.6553 68.622 42.438C67.4046 41.2207 66.796 39.4827 66.796 37.224V28.6H70.36V37.092C70.36 39.8493 71.504 41.228 73.792 41.228C74.9066 41.228 75.7573 40.898 76.344 40.238C76.9306 39.5633 77.224 38.5147 77.224 37.092V28.6H80.744V37.224C80.744 39.4827 80.128 41.2207 78.896 42.438C77.6786 43.6553 75.97 44.264 73.77 44.264ZM91.1518 28.6C92.5158 28.6 93.6965 28.8273 94.6938 29.282C95.7058 29.7367 96.4832 30.382 97.0258 31.218C97.5685 32.054 97.8398 33.044 97.8398 34.188C97.8398 35.3173 97.5685 36.3073 97.0258 37.158C96.4832 37.994 95.7058 38.6393 94.6938 39.094C93.6965 39.534 92.5158 39.754 91.1518 39.754H88.0498V44H84.4858V28.6H91.1518ZM90.9538 36.85C92.0245 36.85 92.8385 36.6227 93.3958 36.168C93.9532 35.6987 94.2318 35.0387 94.2318 34.188C94.2318 33.3227 93.9532 32.6627 93.3958 32.208C92.8385 31.7387 92.0245 31.504 90.9538 31.504H88.0498V36.85H90.9538ZM110.46 31.504H105.532V28.6H118.952V31.504H114.024V44H110.46V31.504ZM128.332 44.264C126.734 44.264 125.289 43.9193 123.998 43.23C122.722 42.5407 121.718 41.5947 120.984 40.392C120.266 39.1747 119.906 37.8107 119.906 36.3C119.906 34.7893 120.266 33.4327 120.984 32.23C121.718 31.0127 122.722 30.0593 123.998 29.37C125.289 28.6807 126.734 28.336 128.332 28.336C129.931 28.336 131.368 28.6807 132.644 29.37C133.92 30.0593 134.925 31.0127 135.658 32.23C136.392 33.4327 136.758 34.7893 136.758 36.3C136.758 37.8107 136.392 39.1747 135.658 40.392C134.925 41.5947 133.92 42.5407 132.644 43.23C131.368 43.9193 129.931 44.264 128.332 44.264ZM128.332 41.228C129.242 41.228 130.063 41.0227 130.796 40.612C131.53 40.1867 132.102 39.6 132.512 38.852C132.938 38.104 133.15 37.2533 133.15 36.3C133.15 35.3467 132.938 34.496 132.512 33.748C132.102 33 131.53 32.4207 130.796 32.01C130.063 31.5847 129.242 31.372 128.332 31.372C127.423 31.372 126.602 31.5847 125.868 32.01C125.135 32.4207 124.556 33 124.13 33.748C123.72 34.496 123.514 35.3467 123.514 36.3C123.514 37.2533 123.72 38.104 124.13 38.852C124.556 39.6 125.135 40.1867 125.868 40.612C126.602 41.0227 127.423 41.228 128.332 41.228ZM152.333 34.87C153.683 35.09 154.717 35.596 155.435 36.388C156.154 37.1653 156.513 38.1333 156.513 39.292C156.513 40.1867 156.279 41.0153 155.809 41.778C155.34 42.526 154.621 43.1273 153.653 43.582C152.7 44.0367 151.527 44.264 150.133 44.264C149.048 44.264 147.977 44.1247 146.921 43.846C145.88 43.5527 144.993 43.142 144.259 42.614L145.645 39.886C146.232 40.326 146.907 40.6707 147.669 40.92C148.447 41.1547 149.239 41.272 150.045 41.272C150.94 41.272 151.644 41.1033 152.157 40.766C152.671 40.414 152.927 39.9227 152.927 39.292C152.927 38.0307 151.967 37.4 150.045 37.4H148.417V35.046L151.585 31.46H145.029V28.6H155.809V30.91L152.333 34.87ZM164.979 44.264C163.703 44.264 162.566 43.9487 161.569 43.318C160.572 42.6873 159.787 41.778 159.215 40.59C158.658 39.3873 158.379 37.9573 158.379 36.3C158.379 34.6427 158.658 33.22 159.215 32.032C159.787 30.8293 160.572 29.9127 161.569 29.282C162.566 28.6513 163.703 28.336 164.979 28.336C166.255 28.336 167.392 28.6513 168.389 29.282C169.386 29.9127 170.164 30.8293 170.721 32.032C171.293 33.22 171.579 34.6427 171.579 36.3C171.579 37.9573 171.293 39.3873 170.721 40.59C170.164 41.778 169.386 42.6873 168.389 43.318C167.392 43.9487 166.255 44.264 164.979 44.264ZM164.979 41.25C165.918 41.25 166.651 40.8467 167.179 40.04C167.722 39.2333 167.993 37.9867 167.993 36.3C167.993 34.6133 167.722 33.3667 167.179 32.56C166.651 31.7533 165.918 31.35 164.979 31.35C164.055 31.35 163.322 31.7533 162.779 32.56C162.251 33.3667 161.987 34.6133 161.987 36.3C161.987 37.9867 162.251 39.2333 162.779 40.04C163.322 40.8467 164.055 41.25 164.979 41.25ZM180.131 44.264C178.855 44.264 177.718 43.9487 176.721 43.318C175.723 42.6873 174.939 41.778 174.367 40.59C173.809 39.3873 173.531 37.9573 173.531 36.3C173.531 34.6427 173.809 33.22 174.367 32.032C174.939 30.8293 175.723 29.9127 176.721 29.282C177.718 28.6513 178.855 28.336 180.131 28.336C181.407 28.336 182.543 28.6513 183.541 29.282C184.538 29.9127 185.315 30.8293 185.873 32.032C186.445 33.22 186.731 34.6427 186.731 36.3C186.731 37.9573 186.445 39.3873 185.873 40.59C185.315 41.778 184.538 42.6873 183.541 43.318C182.543 43.9487 181.407 44.264 180.131 44.264ZM180.131 41.25C181.069 41.25 181.803 40.8467 182.331 40.04C182.873 39.2333 183.145 37.9867 183.145 36.3C183.145 34.6133 182.873 33.3667 182.331 32.56C181.803 31.7533 181.069 31.35 180.131 31.35C179.207 31.35 178.473 31.7533 177.931 32.56C177.403 33.3667 177.139 34.6133 177.139 36.3C177.139 37.9867 177.403 39.2333 177.931 40.04C178.473 40.8467 179.207 41.25 180.131 41.25ZM13.75 68.14V71H1.826V55.6H13.464V58.46H5.368V61.804H12.518V64.576H5.368V68.14H13.75ZM23.6478 71.264C21.4478 71.264 19.7318 70.6553 18.4998 69.438C17.2824 68.2207 16.6738 66.4827 16.6738 64.224V55.6H20.2378V64.092C20.2378 66.8493 21.3818 68.228 23.6698 68.228C24.7844 68.228 25.6351 67.898 26.2218 67.238C26.8084 66.5633 27.1018 65.5147 27.1018 64.092V55.6H30.6218V64.224C30.6218 66.4827 30.0058 68.2207 28.7738 69.438C27.5564 70.6553 25.8478 71.264 23.6478 71.264ZM44.1757 71L41.2057 66.71H41.0297H37.9277V71H34.3637V55.6H41.0297C42.3937 55.6 43.5743 55.8273 44.5717 56.282C45.5837 56.7367 46.361 57.382 46.9037 58.218C47.4463 59.054 47.7177 60.044 47.7177 61.188C47.7177 62.332 47.439 63.322 46.8817 64.158C46.339 64.9793 45.5617 65.61 44.5497 66.05L48.0037 71H44.1757ZM44.1097 61.188C44.1097 60.3227 43.831 59.6627 43.2737 59.208C42.7163 58.7387 41.9023 58.504 40.8317 58.504H37.9277V63.872H40.8317C41.9023 63.872 42.7163 63.6373 43.2737 63.168C43.831 62.6987 44.1097 62.0387 44.1097 61.188ZM67.2219 64.642H63.3939V68.382H60.5559V64.642H56.7499V61.958H60.5559V58.218H63.3939V61.958H67.2219V64.642ZM82.0243 55.6V71H78.4602V58.46H75.3802V55.6H82.0243ZM95.4575 62.904C96.2202 63.2853 96.7995 63.784 97.1955 64.4C97.6062 65.016 97.8115 65.7273 97.8115 66.534C97.8115 67.4873 97.5402 68.3233 96.9975 69.042C96.4548 69.746 95.6922 70.296 94.7095 70.692C93.7268 71.0733 92.5902 71.264 91.2995 71.264C90.0088 71.264 88.8722 71.0733 87.8895 70.692C86.9215 70.296 86.1662 69.746 85.6235 69.042C85.0955 68.3233 84.8315 67.4873 84.8315 66.534C84.8315 65.7273 85.0295 65.016 85.4255 64.4C85.8362 63.784 86.4155 63.2853 87.1635 62.904C86.5915 62.552 86.1515 62.112 85.8435 61.584C85.5355 61.0413 85.3815 60.4253 85.3815 59.736C85.3815 58.8413 85.6308 58.064 86.1295 57.404C86.6282 56.744 87.3248 56.238 88.2195 55.886C89.1142 55.5193 90.1408 55.336 91.2995 55.336C92.4728 55.336 93.5068 55.5193 94.4015 55.886C95.3108 56.238 96.0148 56.744 96.5135 57.404C97.0122 58.064 97.2615 58.8413 97.2615 59.736C97.2615 60.4253 97.1075 61.0413 96.7995 61.584C96.4915 62.112 96.0442 62.552 95.4575 62.904ZM91.2995 57.954C90.5808 57.954 90.0015 58.13 89.5615 58.482C89.1362 58.8193 88.9235 59.2887 88.9235 59.89C88.9235 60.4767 89.1362 60.9387 89.5615 61.276C89.9868 61.6133 90.5662 61.782 91.2995 61.782C92.0328 61.782 92.6195 61.6133 93.0595 61.276C93.4995 60.9387 93.7195 60.4767 93.7195 59.89C93.7195 59.2887 93.4995 58.8193 93.0595 58.482C92.6195 58.13 92.0328 57.954 91.2995 57.954ZM91.2995 68.646C92.1942 68.646 92.8982 68.448 93.4115 68.052C93.9395 67.6413 94.2035 67.0987 94.2035 66.424C94.2035 65.7493 93.9395 65.214 93.4115 64.818C92.8982 64.422 92.1942 64.224 91.2995 64.224C90.4195 64.224 89.7228 64.422 89.2095 64.818C88.6962 65.214 88.4395 65.7493 88.4395 66.424C88.4395 67.1133 88.6962 67.656 89.2095 68.052C89.7228 68.448 90.4195 68.646 91.2995 68.646ZM106.263 71.264C104.987 71.264 103.85 70.9487 102.853 70.318C101.856 69.6873 101.071 68.778 100.499 67.59C99.9416 66.3873 99.6629 64.9573 99.6629 63.3C99.6629 61.6427 99.9416 60.22 100.499 59.032C101.071 57.8293 101.856 56.9127 102.853 56.282C103.85 55.6513 104.987 55.336 106.263 55.336C107.539 55.336 108.676 55.6513 109.673 56.282C110.67 56.9127 111.448 57.8293 112.005 59.032C112.577 60.22 112.863 61.6427 112.863 63.3C112.863 64.9573 112.577 66.3873 112.005 67.59C111.448 68.778 110.67 69.6873 109.673 70.318C108.676 70.9487 107.539 71.264 106.263 71.264ZM106.263 68.25C107.202 68.25 107.935 67.8467 108.463 67.04C109.006 66.2333 109.277 64.9867 109.277 63.3C109.277 61.6133 109.006 60.3667 108.463 59.56C107.935 58.7533 107.202 58.35 106.263 58.35C105.339 58.35 104.606 58.7533 104.063 59.56C103.535 60.3667 103.271 61.6133 103.271 63.3C103.271 64.9867 103.535 66.2333 104.063 67.04C104.606 67.8467 105.339 68.25 106.263 68.25ZM125.797 58.46V62.53H132.925V65.39H125.797V71H122.233V55.6H133.871V58.46H125.797ZM141.521 71.264C140.304 71.264 139.123 71.1027 137.979 70.78C136.85 70.4427 135.94 70.01 135.251 69.482L136.461 66.798C137.121 67.282 137.906 67.6707 138.815 67.964C139.724 68.2573 140.634 68.404 141.543 68.404C142.555 68.404 143.303 68.2573 143.787 67.964C144.271 67.656 144.513 67.2527 144.513 66.754C144.513 66.3873 144.366 66.0867 144.073 65.852C143.794 65.6027 143.428 65.4047 142.973 65.258C142.533 65.1113 141.932 64.95 141.169 64.774C139.996 64.4953 139.035 64.2167 138.287 63.938C137.539 63.6593 136.894 63.212 136.351 62.596C135.823 61.98 135.559 61.1587 135.559 60.132C135.559 59.2373 135.801 58.4307 136.285 57.712C136.769 56.9787 137.495 56.3993 138.463 55.974C139.446 55.5487 140.641 55.336 142.049 55.336C143.032 55.336 143.992 55.4533 144.931 55.688C145.87 55.9227 146.691 56.26 147.395 56.7L146.295 59.406C144.872 58.5993 143.45 58.196 142.027 58.196C141.03 58.196 140.289 58.3573 139.805 58.68C139.336 59.0027 139.101 59.428 139.101 59.956C139.101 60.484 139.372 60.88 139.915 61.144C140.472 61.3933 141.316 61.6427 142.445 61.892C143.618 62.1707 144.579 62.4493 145.327 62.728C146.075 63.0067 146.713 63.4467 147.241 64.048C147.784 64.6493 148.055 65.4633 148.055 66.49C148.055 67.37 147.806 68.1767 147.307 68.91C146.823 69.6287 146.09 70.2007 145.107 70.626C144.124 71.0513 142.929 71.264 141.521 71.264Z" fill="#F4F7FC"/>
<rect y="142" width="111" height="40" rx="12" fill="url(#paint0_linear_1_241)"/>
<path d="M32.996 166V157.6H37.1C38.156 157.6 38.948 157.8 39.476 158.2C40.012 158.6 40.28 159.128 40.28 159.784C40.28 160.224 40.172 160.608 39.956 160.936C39.74 161.256 39.444 161.504 39.068 161.68C38.692 161.856 38.26 161.944 37.772 161.944L38 161.452C38.528 161.452 38.996 161.54 39.404 161.716C39.812 161.884 40.128 162.136 40.352 162.472C40.584 162.808 40.7 163.22 40.7 163.708C40.7 164.428 40.416 164.992 39.848 165.4C39.28 165.8 38.444 166 37.34 166H32.996ZM34.928 164.536H37.196C37.7 164.536 38.08 164.456 38.336 164.296C38.6 164.128 38.732 163.864 38.732 163.504C38.732 163.152 38.6 162.892 38.336 162.724C38.08 162.548 37.7 162.46 37.196 162.46H34.784V161.044H36.86C37.332 161.044 37.692 160.964 37.94 160.804C38.196 160.636 38.324 160.384 38.324 160.048C38.324 159.72 38.196 159.476 37.94 159.316C37.692 159.148 37.332 159.064 36.86 159.064H34.928V164.536ZM46.2518 166.144C45.5878 166.144 44.9718 166.036 44.4038 165.82C43.8438 165.604 43.3558 165.3 42.9398 164.908C42.5318 164.516 42.2118 164.056 41.9798 163.528C41.7558 163 41.6438 162.424 41.6438 161.8C41.6438 161.176 41.7558 160.6 41.9798 160.072C42.2118 159.544 42.5358 159.084 42.9518 158.692C43.3678 158.3 43.8558 157.996 44.4158 157.78C44.9758 157.564 45.5838 157.456 46.2398 157.456C46.9038 157.456 47.5118 157.564 48.0638 157.78C48.6238 157.996 49.1078 158.3 49.5158 158.692C49.9318 159.084 50.2558 159.544 50.4878 160.072C50.7198 160.592 50.8358 161.168 50.8358 161.8C50.8358 162.424 50.7198 163.004 50.4878 163.54C50.2558 164.068 49.9318 164.528 49.5158 164.92C49.1078 165.304 48.6238 165.604 48.0638 165.82C47.5118 166.036 46.9078 166.144 46.2518 166.144ZM46.2398 164.488C46.6158 164.488 46.9598 164.424 47.2718 164.296C47.5918 164.168 47.8718 163.984 48.1118 163.744C48.3518 163.504 48.5358 163.22 48.6638 162.892C48.7998 162.564 48.8678 162.2 48.8678 161.8C48.8678 161.4 48.7998 161.036 48.6638 160.708C48.5358 160.38 48.3518 160.096 48.1118 159.856C47.8798 159.616 47.6038 159.432 47.2838 159.304C46.9638 159.176 46.6158 159.112 46.2398 159.112C45.8638 159.112 45.5158 159.176 45.1958 159.304C44.8838 159.432 44.6078 159.616 44.3678 159.856C44.1278 160.096 43.9398 160.38 43.8038 160.708C43.6758 161.036 43.6118 161.4 43.6118 161.8C43.6118 162.192 43.6758 162.556 43.8038 162.892C43.9398 163.22 44.1238 163.504 44.3558 163.744C44.5958 163.984 44.8758 164.168 45.1958 164.296C45.5158 164.424 45.8638 164.488 46.2398 164.488ZM52.2968 166V157.6H53.9048L58.8608 163.648H58.0808V157.6H60.0008V166H58.4048L53.4368 159.952H54.2168V166H52.2968ZM65.7202 166.144C64.5282 166.144 63.5962 165.812 62.9242 165.148C62.2522 164.484 61.9162 163.536 61.9162 162.304V157.6H63.8602V162.232C63.8602 163.032 64.0242 163.608 64.3522 163.96C64.6802 164.312 65.1402 164.488 65.7322 164.488C66.3242 164.488 66.7842 164.312 67.1122 163.96C67.4402 163.608 67.6042 163.032 67.6042 162.232V157.6H69.5242V162.304C69.5242 163.536 69.1882 164.484 68.5162 165.148C67.8442 165.812 66.9122 166.144 65.7202 166.144ZM74.2052 166.144C73.5332 166.144 72.8892 166.056 72.2732 165.88C71.6572 165.696 71.1612 165.46 70.7852 165.172L71.4452 163.708C71.8052 163.964 72.2292 164.176 72.7172 164.344C73.2132 164.504 73.7132 164.584 74.2172 164.584C74.6012 164.584 74.9092 164.548 75.1412 164.476C75.3812 164.396 75.5572 164.288 75.6692 164.152C75.7812 164.016 75.8372 163.86 75.8372 163.684C75.8372 163.46 75.7492 163.284 75.5732 163.156C75.3972 163.02 75.1652 162.912 74.8772 162.832C74.5892 162.744 74.2692 162.664 73.9172 162.592C73.5732 162.512 73.2252 162.416 72.8732 162.304C72.5292 162.192 72.2132 162.048 71.9252 161.872C71.6372 161.696 71.4012 161.464 71.2172 161.176C71.0412 160.888 70.9532 160.52 70.9532 160.072C70.9532 159.592 71.0812 159.156 71.3372 158.764C71.6012 158.364 71.9932 158.048 72.5132 157.816C73.0412 157.576 73.7012 157.456 74.4932 157.456C75.0212 157.456 75.5412 157.52 76.0532 157.648C76.5652 157.768 77.0172 157.952 77.4092 158.2L76.8092 159.676C76.4172 159.452 76.0252 159.288 75.6332 159.184C75.2412 159.072 74.8572 159.016 74.4812 159.016C74.1052 159.016 73.7972 159.06 73.5572 159.148C73.3172 159.236 73.1452 159.352 73.0412 159.496C72.9372 159.632 72.8852 159.792 72.8852 159.976C72.8852 160.192 72.9732 160.368 73.1492 160.504C73.3252 160.632 73.5572 160.736 73.8452 160.816C74.1332 160.896 74.4492 160.976 74.7932 161.056C75.1452 161.136 75.4932 161.228 75.8372 161.332C76.1892 161.436 76.5092 161.576 76.7972 161.752C77.0852 161.928 77.3172 162.16 77.4932 162.448C77.6772 162.736 77.7692 163.1 77.7692 163.54C77.7692 164.012 77.6372 164.444 77.3732 164.836C77.1092 165.228 76.7132 165.544 76.1852 165.784C75.6652 166.024 75.0052 166.144 74.2052 166.144Z" fill="#F4F7FC"/>
<defs>
<linearGradient id="paint0_linear_1_241" x1="13.5252" y1="130.571" x2="104.796" y2="194.489" gradientUnits="userSpaceOnUse">
<stop stop-color="#32343B"/>
<stop offset="1" stop-color="#191A1E"/>
</linearGradient>
</defs>
</svg>
